# xmcd
#
# Track frame offsets:
#	150
#	22565
#	37697
#	56292
#	67217
#	79542
#	94843
#	111568
#	128126
#	144737
#	163000
#	176466
#
# Disc length: 2622 seconds
#
# Revision: 0
# Processed by: cddbd v1.5.2PL0 Copyright (c) Steve Scherf et al.
# Submitted via: audiograbber 1.83.01
#
DISCID=950a3c0c
DTITLE=Confederate Railroad - Live - Back to the barroom
DYEAR=2010
DGENRE=Country
TTITLE0=Queen of Memphis
TTITLE1=Elvis and Andy
TTITLE2=When you leave that way
TTITLE3=When and where
TTITLE4=She took it like a man
TTITLE5=Jesus and Mama
TTITLE6=Bill's laundromat, bar and grill
TTITLE7=Daddy never was (The Cadillac kind)
TTITLE8=White trash with money
TTITLE9=That's what brothers do
TTITLE10=B. B. Gun
TTITLE11=Trashy women
EXTD=
EXTT0=
EXTT1=
EXTT2=
EXTT3=
EXTT4=
EXTT5=
EXTT6=
EXTT7=
EXTT8=
EXTT9=
EXTT10=
EXTT11=
PLAYORDER=
